<svg width="512" height="512" viewBox="0 0 135.46667 135.46667" xmlns="http://www.w3.org/2000/svg">
  <rect width="112.15732" height="112.15732" x="11.654675" y="11.654675" ry="20.2757" fill="#eaeaea"/>
  <path d="M97.921975 88.925727c0 1.666528-1.35246 3.018873-3.018866 3.018873H62.885033c-.803027 0-1.569816.313999-2.13132.881528l-4.214334 4.214331c-.561503.561593-1.328293.881526-2.13132.881526h-9.575836c-.803004 0-1.569818-.319933-2.131321-.881526l-4.214331-4.214331c-.567551-.567529-1.328293-.881528-2.131321-.881528h-7.867158c-1.666414 0-3.018866-1.352528-3.018866-3.018873V70.752182c0-1.666299 1.352458-3.018871 3.018866-3.018871h7.806781c.803028 0 1.569817.319932 2.131321.881526l4.274713 4.274713c.561503.561593 1.328293.881527 2.13132.881527h9.575839c.803028 0 1.569818-.319934 2.13132-.881527l4.274712-4.274713c.561504-.561594 1.328293-.881526 2.131321-.881526h31.9577c1.666414 0 3.018864 1.352526 3.018864 3.018871zm12.075455-30.18863c0 1.666527-1.35246 3.018851-3.01886 3.018851H62.885033c-.803027 0-1.569816.313999-2.13132.881526l-4.214334 4.214355c-.561503.561594-1.328293.881526-2.13132.881526h-9.575836c-.803004 0-1.569818-.319932-2.131321-.881526l-4.214331-4.214331c-.567551-.567529-1.328293-.881528-2.131321-.881528h-7.867158c-1.666414 0-3.018866-1.352527-3.018866-3.018849V40.563552c0-1.666528 1.352458-3.018871 3.018866-3.018871h7.806781c.803028 0 1.569817.319933 2.131321.881526l4.274713 4.274713c.561503.561595 1.328293.881526 2.13132.881526h9.575839c.803028 0 1.569818-.319931 2.13132-.881526l4.274712-4.274713c.561504-.561593 1.328293-.881526 2.131321-.881526h44.033161c1.66641 0 3.01886 1.352526 3.01886 3.018871z" fill="url(#gradient)" fill-rule="evenodd"/>
  <linearGradient id="gradient" x1="0%" y1="0%" x2="0%" y2="100%">
    <stop offset="0%" stop-color="#75C1C4"/>
    <stop offset="25%" stop-color="#5da8cc"/>
    <stop offset="100%" stop-color="#3C7699"/>
  </linearGradient>
  <path d="M 2.5 0 L 6 0 L 5 1 L 3 1 L 1 3 L 1 7 L 0 6 L 0 2.5 L 2.5 0 M 0 7 L 0 10 L 1 10 L 1 8 L 0 7 M 7 0 L 10 0 L 7 3 L 4 3 L 3 4 L 3 8 L 2 9 L 2 3.5 L 3.5 2 L 6.5 2 L 7.5 1 L 6 1 L 7 0 M 2 10 L 3 9 L 7.5 9 L 9 7.5 L 9 6 L 7 6 L 8 5 L 10 5 L 10 8 L 8 10 L 2 10 M 10 1 L 10 2 L 6 6 L 5 6 L 10 1 Z" fill="#eaeaea" transform="translate(91 42),scale(1.5 1.5)"/>
</svg>
